<?xml version="1.0" encoding="utf-8"?>
<svg xmlns="http://www.w3.org/2000/svg" xmlns:xlink="http://www.w3.org/1999/xlink" style="margin: auto; background: none; display: block; shape-rendering: auto;" width="104px" height="104px" viewBox="0 0 100 100" preserveAspectRatio="xMidYMid">
<g transform="rotate(0 50 50)">
  <rect x="48" y="18.5" rx="2" ry="3.63" width="4" height="11" fill="#6e69c2">
    <animate attributeName="opacity" values="1;0" keyTimes="0;1" dur="0.8264462809917356s" begin="-0.7805325987144168s" repeatCount="indefinite"></animate>
  </rect>
</g><g transform="rotate(20 50 50)">
  <rect x="48" y="18.5" rx="2" ry="3.63" width="4" height="11" fill="#6e69c2">
    <animate attributeName="opacity" values="1;0" keyTimes="0;1" dur="0.8264462809917356s" begin="-0.7346189164370982s" repeatCount="indefinite"></animate>
  </rect>
</g><g transform="rotate(40 50 50)">
  <rect x="48" y="18.5" rx="2" ry="3.63" width="4" height="11" fill="#6e69c2">
    <animate attributeName="opacity" values="1;0" keyTimes="0;1" dur="0.8264462809917356s" begin="-0.6887052341597796s" repeatCount="indefinite"></animate>
  </rect>
</g><g transform="rotate(60 50 50)">
  <rect x="48" y="18.5" rx="2" ry="3.63" width="4" height="11" fill="#6e69c2">
    <animate attributeName="opacity" values="1;0" keyTimes="0;1" dur="0.8264462809917356s" begin="-0.642791551882461s" repeatCount="indefinite"></animate>
  </rect>
</g><g transform="rotate(80 50 50)">
  <rect x="48" y="18.5" rx="2" ry="3.63" width="4" height="11" fill="#6e69c2">
    <animate attributeName="opacity" values="1;0" keyTimes="0;1" dur="0.8264462809917356s" begin="-0.5968778696051423s" repeatCount="indefinite"></animate>
  </rect>
</g><g transform="rotate(100 50 50)">
  <rect x="48" y="18.5" rx="2" ry="3.63" width="4" height="11" fill="#6e69c2">
    <animate attributeName="opacity" values="1;0" keyTimes="0;1" dur="0.8264462809917356s" begin="-0.5509641873278237s" repeatCount="indefinite"></animate>
  </rect>
</g><g transform="rotate(120 50 50)">
  <rect x="48" y="18.5" rx="2" ry="3.63" width="4" height="11" fill="#6e69c2">
    <animate attributeName="opacity" values="1;0" keyTimes="0;1" dur="0.8264462809917356s" begin="-0.505050505050505s" repeatCount="indefinite"></animate>
  </rect>
</g><g transform="rotate(140 50 50)">
  <rect x="48" y="18.5" rx="2" ry="3.63" width="4" height="11" fill="#6e69c2">
    <animate attributeName="opacity" values="1;0" keyTimes="0;1" dur="0.8264462809917356s" begin="-0.4591368227731864s" repeatCount="indefinite"></animate>
  </rect>
</g><g transform="rotate(160 50 50)">
  <rect x="48" y="18.5" rx="2" ry="3.63" width="4" height="11" fill="#6e69c2">
    <animate attributeName="opacity" values="1;0" keyTimes="0;1" dur="0.8264462809917356s" begin="-0.4132231404958677s" repeatCount="indefinite"></animate>
  </rect>
</g><g transform="rotate(180 50 50)">
  <rect x="48" y="18.5" rx="2" ry="3.63" width="4" height="11" fill="#6e69c2">
    <animate attributeName="opacity" values="1;0" keyTimes="0;1" dur="0.8264462809917356s" begin="-0.3673094582185491s" repeatCount="indefinite"></animate>
  </rect>
</g><g transform="rotate(200 50 50)">
  <rect x="48" y="18.5" rx="2" ry="3.63" width="4" height="11" fill="#6e69c2">
    <animate attributeName="opacity" values="1;0" keyTimes="0;1" dur="0.8264462809917356s" begin="-0.3213957759412305s" repeatCount="indefinite"></animate>
  </rect>
</g><g transform="rotate(220 50 50)">
  <rect x="48" y="18.5" rx="2" ry="3.63" width="4" height="11" fill="#6e69c2">
    <animate attributeName="opacity" values="1;0" keyTimes="0;1" dur="0.8264462809917356s" begin="-0.27548209366391185s" repeatCount="indefinite"></animate>
  </rect>
</g><g transform="rotate(240 50 50)">
  <rect x="48" y="18.5" rx="2" ry="3.63" width="4" height="11" fill="#6e69c2">
    <animate attributeName="opacity" values="1;0" keyTimes="0;1" dur="0.8264462809917356s" begin="-0.2295684113865932s" repeatCount="indefinite"></animate>
  </rect>
</g><g transform="rotate(260 50 50)">
  <rect x="48" y="18.5" rx="2" ry="3.63" width="4" height="11" fill="#6e69c2">
    <animate attributeName="opacity" values="1;0" keyTimes="0;1" dur="0.8264462809917356s" begin="-0.18365472910927455s" repeatCount="indefinite"></animate>
  </rect>
</g><g transform="rotate(280 50 50)">
  <rect x="48" y="18.5" rx="2" ry="3.63" width="4" height="11" fill="#6e69c2">
    <animate attributeName="opacity" values="1;0" keyTimes="0;1" dur="0.8264462809917356s" begin="-0.13774104683195593s" repeatCount="indefinite"></animate>
  </rect>
</g><g transform="rotate(300 50 50)">
  <rect x="48" y="18.5" rx="2" ry="3.63" width="4" height="11" fill="#6e69c2">
    <animate attributeName="opacity" values="1;0" keyTimes="0;1" dur="0.8264462809917356s" begin="-0.09182736455463728s" repeatCount="indefinite"></animate>
  </rect>
</g><g transform="rotate(320 50 50)">
  <rect x="48" y="18.5" rx="2" ry="3.63" width="4" height="11" fill="#6e69c2">
    <animate attributeName="opacity" values="1;0" keyTimes="0;1" dur="0.8264462809917356s" begin="-0.04591368227731864s" repeatCount="indefinite"></animate>
  </rect>
</g><g transform="rotate(340 50 50)">
  <rect x="48" y="18.5" rx="2" ry="3.63" width="4" height="11" fill="#6e69c2">
    <animate attributeName="opacity" values="1;0" keyTimes="0;1" dur="0.8264462809917356s" begin="0s" repeatCount="indefinite"></animate>
  </rect>
</g>
<!-- [ldio] generated by https://loading.io/ --></svg>